<?xml version="1.0" encoding="UTF-8"?>
<svg width="175px" height="37px" viewBox="0 0 175 37" version="1.1" xmlns="http://www.w3.org/2000/svg" xmlns:xlink="http://www.w3.org/1999/xlink">
    <!-- Generator: Sketch 52.5 (67469) - http://www.bohemiancoding.com/sketch -->
    <title>asiete</title>
    <desc>Created with Sketch.</desc>
    <g id="Page-1" stroke="none" stroke-width="1" fill="none" fill-rule="evenodd">
        <g id="Desktop" transform="translate(-76.000000, -79.000000)" fill="#FFFFFF">
            <g id="asiete" transform="translate(76.000000, 79.000000)">
                <path d="M5.08430675,18.0856423 L3.55271368e-15,18.0856423 L10.5261711,2.31142643 C11.5066689,0.841910289 13.2379871,-1.0658141e-13 15.2784963,-1.0658141e-13 L20.9875159,-1.0658141e-13 L10.3841103,15.5392585 C9.27826474,17.1594195 7.35094834,18.0856423 5.08430675,18.0856423 Z M14.3662252,36 L9.01248413,36 L19.4606611,20.3426554 C20.4907916,18.7990317 22.3094733,17.9143577 24.4530461,17.9143577 L30,17.9143577 L19.264916,33.6462958 C18.2428888,35.1442401 16.4614316,36 14.3662252,36 Z" id="isologo"></path>
                <path d="M72.9165204,36.1480562 C71.2242637,35.5804261 69.729155,34.7838325 68.4320402,33.7586909 L70.7588931,30.2265856 C73.0997072,31.8887528 75.5395182,32.7198364 78.0779032,32.7198364 C79.1211795,32.7198364 79.9673078,32.5191297 80.6162882,32.1173007 C81.2648456,31.7158874 81.5893358,31.1823317 81.5893358,30.5170493 C81.5893358,29.769074 81.2436924,29.2085082 80.5528286,28.834105 C79.8615418,28.4605329 78.7404217,28.0657682 77.1894685,27.6502264 C75.412599,27.2072588 73.9809498,26.7360344 72.8953672,26.2369687 C71.8093615,25.7383186 70.956041,25.0942288 70.335829,24.3051149 C69.7151938,23.5155855 69.4050878,22.5116365 69.4050878,21.2924369 C69.4050878,19.9627031 69.7503082,18.7854732 70.441595,17.7603316 C71.1324588,16.7356055 72.1055064,15.9390119 73.3607378,15.3709662 C74.6155461,14.8033361 76.0471952,14.51869 77.6548391,14.51869 C79.1211795,14.51869 80.5739818,14.7476535 82.0124,15.2047495 C83.4508181,15.6614299 84.7902393,16.2922224 86.0315096,17.0950492 L83.8738823,20.7937867 C82.8585283,20.1567611 81.8076369,19.6718239 80.7220543,19.3393904 C79.6360486,19.006957 78.6135025,18.8407403 77.6548391,18.8407403 C76.7240979,18.8407403 75.9553903,19.0140212 75.3491394,19.3601675 C74.7424653,19.7067294 74.4395514,20.170474 74.4395514,20.751817 C74.4395514,21.1956156 74.5804318,21.5621235 74.8626156,21.8534183 C75.1443763,22.1442976 75.5818246,22.4006869 76.1741145,22.6217551 C76.7664043,22.84407 77.6827613,23.1349492 78.9240316,23.4948084 C80.5033301,23.9103502 81.814829,24.3537333 82.8585283,24.8245422 C83.9018045,25.2957666 84.7834703,25.9672821 85.5026794,26.8399199 C86.2218884,27.7121421 86.581493,28.8415847 86.581493,30.2265856 C86.581493,32.2768688 85.7916322,33.9182589 84.2123336,35.1507559 C82.632612,36.3832529 80.5595976,36.9999169 77.9932904,36.9999169 C76.3010337,36.9999169 74.6087771,36.7152708 72.9165204,36.1480562 Z M91.0659308,36.5011836 L91.0659308,15.0176726 L96.2273137,15.0176726 L96.2273137,36.5011836 L91.0659308,36.5011836 Z M91.594761,10.9038088 C91.0164323,10.3220503 90.7274795,9.6434705 90.7274795,8.86765396 C90.7274795,8.0926685 91.0164323,7.42032187 91.594761,6.85227623 C92.1726667,6.28464613 92.8707226,6 93.6889287,6 C94.4783664,6 95.1624612,6.28464613 95.7407899,6.85227623 C96.3186955,7.42032187 96.6080714,8.0926685 96.6080714,8.86765396 C96.6080714,9.6434705 96.3186955,10.3220503 95.7407899,10.9038088 C95.1624612,11.4855673 94.4783664,11.7764466 93.6889287,11.7764466 C92.8707226,11.7764466 92.1726667,11.4855673 91.594761,10.9038088 Z M108.305373,20.2535824 C107.219367,21.084666 106.492966,22.2062133 106.126592,23.6194709 L117.633937,23.6194709 C117.322985,22.2062133 116.696004,21.084666 115.751302,20.2535824 C114.806177,19.4224988 113.586483,19.006957 112.091797,19.006957 C110.653379,19.006957 109.390532,19.4224988 108.305373,20.2535824 Z M115.264778,31.8887528 C116.3364,31.473211 117.182528,30.9608479 117.803163,30.3512481 L121.060757,33.6755825 C120.130016,34.6454571 118.818517,35.4416351 117.12626,36.0649478 C115.434004,36.6882605 113.784054,36.9999169 112.17641,36.9999169 C110.089011,36.9999169 108.178453,36.5149796 106.44389,35.5455206 C104.709327,34.5760616 103.327177,33.2326149 102.297861,31.5147651 C101.268123,29.7973309 100.753677,27.8579973 100.753677,25.6971799 C100.753677,23.5920452 101.246547,21.686786 102.234402,19.9834802 C103.22141,18.2797588 104.561255,16.9433764 106.253511,15.9730863 C107.945768,15.0040428 109.821211,14.51869 111.880265,14.51869 C114.108121,14.51869 116.026294,15.045597 117.633937,16.0981644 C119.241581,17.1511473 120.468467,18.6533309 121.314596,20.6067929 C122.160724,22.5598394 122.583788,24.8519679 122.583788,27.4835941 L106.084286,27.4835941 C106.394392,28.9799602 107.092448,30.1920956 108.178453,31.1195849 C109.264036,32.0483208 110.582727,32.5120655 112.134103,32.5120655 C113.149457,32.5120655 114.192734,32.3042946 115.264778,31.8887528 Z M139.463583,35.2958631 C138.842948,35.8227701 138.116547,36.2383119 137.285226,36.5424885 C136.452635,36.8470806 135.628083,37 134.809877,37 C133.004662,37 131.523938,36.4178259 130.367703,35.2543089 C129.211046,34.0912074 128.63314,32.6093853 128.63314,30.8080116 L128.63314,19.214811 L125.460159,19.214811 L125.460159,15.0174233 L128.63314,15.0174233 L128.63314,9.11672971 L133.668027,9.11672971 L133.668027,15.0174233 L138.617455,15.0174233 L138.617455,19.214811 L133.668027,19.214811 L133.668027,30.1846989 C133.668027,30.905664 133.871944,31.5007198 134.281047,31.9715287 C134.69015,32.4431686 135.205019,32.6779497 135.825231,32.6779497 C136.248295,32.6779497 136.650629,32.6093853 137.030964,32.4701788 C137.411722,32.3318034 137.72902,32.1377454 137.982858,31.8888359 L139.463583,35.2958631 Z M149.849343,20.2535824 C148.76376,21.084666 148.037359,22.2062133 147.670986,23.6194709 L159.178331,23.6194709 C158.867379,22.2062133 158.240398,21.084666 157.295695,20.2535824 C156.350147,19.4224988 155.130453,19.006957 153.63619,19.006957 C152.197772,19.006957 150.934926,19.4224988 149.849343,20.2535824 Z M156.809172,31.8887528 C157.88037,31.473211 158.726498,30.9608479 159.347557,30.3512481 L162.604728,33.6755825 C161.674409,34.6454571 160.362911,35.4416351 158.670654,36.0649478 C156.978397,36.6882605 155.328447,36.9999169 153.72038,36.9999169 C151.633405,36.9999169 149.722847,36.5149796 147.988284,35.5455206 C146.253298,34.5760616 144.871147,33.2326149 143.842255,31.5147651 C142.812094,29.7973309 142.297648,27.8579973 142.297648,25.6971799 C142.297648,23.5920452 142.79094,21.686786 143.778372,19.9834802 C144.765381,18.2797588 146.105225,16.9433764 147.797482,15.9730863 C149.489738,15.0040428 151.365605,14.51869 153.424658,14.51869 C155.652514,14.51869 157.570264,15.045597 159.178331,16.0981644 C160.785975,17.1511473 162.012438,18.6533309 162.858566,20.6067929 C163.704694,22.5598394 164.127759,24.8519679 164.127759,27.4835941 L147.628256,27.4835941 C147.938362,28.9799602 148.636418,30.1920956 149.722847,31.1195849 C150.808006,32.0483208 152.126697,32.5120655 153.678497,32.5120655 C154.693851,32.5120655 155.736704,32.3042946 156.809172,31.8887528 Z M169.331363,36.0230612 C168.682383,35.3727383 168.358316,34.5898576 168.358316,33.6756656 C168.358316,32.8171562 168.682383,32.0687655 169.331363,31.4313243 C169.979498,30.7947143 170.783743,30.4755782 171.742829,30.4755782 C172.61688,30.4755782 173.377972,30.7947143 174.027799,31.4313243 C174.675933,32.0687655 175,32.8171562 175,33.6756656 C175,34.5898576 174.682702,35.3727383 174.048106,36.0230612 C173.413509,36.6737997 172.645225,37 171.742829,37 C170.783743,37 169.979498,36.6737997 169.331363,36.0230612 Z M56.9669167,24.0348465 C58.0808447,23.397821 58.7789005,22.5388961 59.0610843,21.4584874 L59.0610843,19.0483449 C57.4250952,18.4944277 55.6342646,18.2172613 53.6881694,18.2172613 C52.3906316,18.2172613 51.2906648,18.5430461 50.3882689,19.1937846 C49.48545,19.8449386 49.0344636,20.668958 49.0344636,21.6662583 C49.0344636,22.6635586 49.4363745,23.467632 50.2401965,24.0764007 C51.0440184,24.6860005 52.0661414,24.9905927 53.3074117,24.9905927 C54.6328717,24.9905927 55.8525657,24.6722877 56.9669167,24.0348465 Z M61.5571629,8.68057704 C63.2494196,10.3294469 64.0955479,12.5243387 64.0955479,15.2669146 L64.0955479,28.1902645 L59.0610843,28.1902645 L59.0610843,25.6139054 C58.2712235,26.5841955 57.2486774,27.3384038 55.9938691,27.8786082 C54.7386377,28.4188125 53.4622531,28.6889147 52.1651384,28.6889147 C50.6137621,28.6889147 49.2176504,28.4046841 47.9768032,27.837054 C46.7355329,27.2694239 45.7624853,26.4657661 45.0576604,25.4269116 C44.3524125,24.3880571 44,23.1900501 44,21.832475 C44,20.4474742 44.401911,19.2145617 45.2057329,18.134153 C46.0095548,17.0537443 47.0883684,16.2089478 48.4421737,15.599348 C49.7959791,14.9901637 51.2906648,14.685156 52.9266539,14.685156 C54.9573619,14.685156 57.002031,15.0736876 59.0610843,15.8486731 L59.0610843,15.2669146 C59.0610843,13.8819137 58.6308281,12.7188122 57.7707386,11.7763634 C56.9102261,10.8347457 55.5496517,10.3635213 53.6881694,10.3635213 C51.9392221,10.3635213 49.9652047,10.9037257 47.7652711,11.9841343 L45.9884016,8.45202905 C49.0907311,6.95607857 51.9959127,6.20810333 54.7035234,6.20810333 C57.5803597,6.20810333 59.8649062,7.03253826 61.5571629,8.68057704 Z" id="asiete."></path>
            </g>
        </g>
    </g>
</svg>