<?xml version="1.0" encoding="utf-8"?>
<!-- Generator: Adobe Illustrator 21.0.0, SVG Export Plug-In . SVG Version: 6.00 Build 0)  -->
<svg version="1.1" id="Capa_1" xmlns="http://www.w3.org/2000/svg" xmlns:xlink="http://www.w3.org/1999/xlink" x="0px" y="0px"
	 viewBox="0 0 238 50" style="enable-background:new 0 0 238 50;" xml:space="preserve">
<style type="text/css">
	.st0{fill:#FFFFFF;}
</style>
<title>asiete</title>
<desc>Created with Sketch.</desc>
<g id="Page-1">
	<g id="Desktop" transform="translate(-96.000000, -89.000000)">
		<g id="asiete" transform="translate(96.000000, 89.000000)">
			<path id="Fill-1" class="st0" d="M6.9,24.6H0L14.4,3.1c1.3-2,3.7-3.1,6.5-3.1h7.8L14.2,21.2C12.7,23.4,10,24.6,6.9,24.6"/>
			<path id="Fill-4" class="st0" d="M19.6,49h-7.3l14.3-21.3c1.4-2.1,3.9-3.3,6.8-3.3H41L26.3,45.8C24.9,47.8,22.5,49,19.6,49"/>
			<path id="asiete." class="st0" d="M99.3,48.8C97,48.1,95,47,93.2,45.6l3.2-4.8c3.2,2.3,6.5,3.4,9.9,3.4c1.4,0,2.6-0.3,3.4-0.8
				c0.9-0.5,1.3-1.3,1.3-2.2c0-1-0.5-1.8-1.4-2.3c-0.9-0.5-2.5-1-4.6-1.6c-2.4-0.6-4.4-1.2-5.8-1.9c-1.5-0.7-2.6-1.5-3.5-2.6
				c-0.8-1.1-1.3-2.4-1.3-4.1c0-1.8,0.5-3.4,1.4-4.8c0.9-1.4,2.3-2.5,4-3.2c1.7-0.8,3.7-1.2,5.8-1.2c2,0,4,0.3,5.9,0.9
				c2,0.6,3.8,1.5,5.5,2.6l-2.9,5c-1.4-0.9-2.8-1.5-4.3-2c-1.5-0.5-2.9-0.7-4.2-0.7c-1.3,0-2.3,0.2-3.1,0.7
				c-0.8,0.5-1.2,1.1-1.2,1.9c0,0.6,0.2,1.1,0.6,1.5c0.4,0.4,1,0.7,1.8,1c0.8,0.3,2,0.7,3.7,1.2c2.1,0.6,3.9,1.2,5.3,1.8
				c1.4,0.6,2.6,1.5,3.6,2.7c1,1.2,1.5,2.7,1.5,4.6c0,2.8-1.1,5-3.2,6.7c-2.1,1.7-5,2.5-8.5,2.5C103.9,50,101.6,49.6,99.3,48.8z
				 M124,49.3V20.2h7v29.1H124z M124.7,14.6c-0.8-0.8-1.2-1.7-1.2-2.8c0-1,0.4-2,1.2-2.7c0.8-0.8,1.7-1.2,2.8-1.2
				c1.1,0,2,0.4,2.8,1.2c0.8,0.8,1.2,1.7,1.2,2.7c0,1.1-0.4,2-1.2,2.8c-0.8,0.8-1.7,1.2-2.8,1.2C126.4,15.8,125.5,15.4,124.7,14.6z
				 M147.4,27.3c-1.5,1.1-2.5,2.6-3,4.6h15.6c-0.4-1.9-1.3-3.4-2.6-4.6c-1.3-1.1-2.9-1.7-5-1.7C150.6,25.6,148.9,26.2,147.4,27.3z
				 M156.8,43.1c1.5-0.6,2.6-1.3,3.4-2.1l4.4,4.5c-1.3,1.3-3,2.4-5.3,3.2c-2.3,0.8-4.5,1.3-6.7,1.3c-2.8,0-5.4-0.7-7.8-2
				s-4.2-3.1-5.6-5.5c-1.4-2.3-2.1-5-2.1-7.9c0-2.9,0.7-5.4,2-7.7c1.3-2.3,3.2-4.1,5.5-5.4c2.3-1.3,4.8-2,7.6-2c3,0,5.6,0.7,7.8,2.1
				c2.2,1.4,3.9,3.5,5,6.1c1.1,2.6,1.7,5.8,1.7,9.3h-22.4c0.4,2,1.4,3.7,2.8,4.9c1.5,1.3,3.3,1.9,5.4,1.9
				C154,43.9,155.4,43.6,156.8,43.1z M189.7,47.7c-0.8,0.7-1.8,1.3-3,1.7c-1.1,0.4-2.3,0.6-3.4,0.6c-2.5,0-4.5-0.8-6-2.4
				c-1.6-1.6-2.4-3.6-2.4-6V25.9h-4.3v-5.7h4.3v-8h6.8v8h6.7v5.7h-6.7v14.9c0,1,0.3,1.8,0.8,2.4c0.6,0.6,1.3,1,2.1,1
				c0.6,0,1.1-0.1,1.6-0.3c0.5-0.2,0.9-0.5,1.3-0.8L189.7,47.7z M203.8,27.3c-1.5,1.1-2.5,2.6-3,4.6h15.6c-0.4-1.9-1.3-3.4-2.6-4.6
				c-1.3-1.1-2.9-1.7-5-1.7C207,25.6,205.3,26.2,203.8,27.3z M213.3,43.1c1.5-0.6,2.6-1.3,3.4-2.1l4.4,4.5c-1.3,1.3-3,2.4-5.3,3.2
				c-2.3,0.8-4.5,1.3-6.7,1.3c-2.8,0-5.4-0.7-7.8-2c-2.4-1.3-4.2-3.1-5.6-5.5c-1.4-2.3-2.1-5-2.1-7.9c0-2.9,0.7-5.4,2-7.7
				c1.3-2.3,3.2-4.1,5.5-5.4c2.3-1.3,4.8-2,7.6-2c3,0,5.6,0.7,7.8,2.1c2.2,1.4,3.9,3.5,5,6.1c1.1,2.6,1.7,5.8,1.7,9.3h-22.4
				c0.4,2,1.4,3.7,2.8,4.9c1.5,1.3,3.3,1.9,5.4,1.9C210.4,43.9,211.8,43.6,213.3,43.1z M230.3,48.7c-0.9-0.9-1.3-1.9-1.3-3.2
				c0-1.2,0.4-2.2,1.3-3c0.9-0.9,2-1.3,3.3-1.3c1.2,0,2.2,0.4,3.1,1.3c0.9,0.9,1.3,1.9,1.3,3c0,1.2-0.4,2.3-1.3,3.2
				c-0.9,0.9-1.9,1.3-3.1,1.3C232.3,50,231.2,49.6,230.3,48.7z M77.6,32.4c1.5-0.9,2.5-2,2.8-3.5v-3.3c-2.2-0.8-4.7-1.1-7.3-1.1
				c-1.8,0-3.3,0.4-4.5,1.3c-1.2,0.9-1.8,2-1.8,3.3c0,1.4,0.5,2.4,1.6,3.3c1.1,0.8,2.5,1.2,4.2,1.2C74.4,33.7,76.1,33.3,77.6,32.4z
				 M83.9,11.6c2.3,2.2,3.4,5.2,3.4,8.9v17.5h-6.8v-3.5c-1.1,1.3-2.5,2.3-4.2,3.1c-1.7,0.7-3.4,1.1-5.2,1.1c-2.1,0-4-0.4-5.7-1.2
				c-1.7-0.8-3-1.9-4-3.3c-1-1.4-1.4-3-1.4-4.9c0-1.9,0.5-3.5,1.6-5s2.6-2.6,4.4-3.4c1.8-0.8,3.9-1.2,6.1-1.2c2.8,0,5.5,0.5,8.3,1.6
				v-0.8c0-1.9-0.6-3.5-1.8-4.7c-1.2-1.3-3-1.9-5.5-1.9c-2.4,0-5.1,0.7-8,2.2l-2.4-4.8c4.2-2,8.2-3,11.8-3
				C78.5,8.3,81.6,9.4,83.9,11.6z"/>
		</g>
	</g>
</g>
</svg>
