<?xml version="1.0" encoding="UTF-8"?>
<svg width="238px" height="50px" viewBox="0 0 238 50" version="1.1" xmlns="http://www.w3.org/2000/svg" xmlns:xlink="http://www.w3.org/1999/xlink">
    <!-- Generator: Sketch 52.5 (67469) - http://www.bohemiancoding.com/sketch -->
    <title>asiete</title>
    <desc>Created with Sketch.</desc>
    <g id="Page-1" stroke="none" stroke-width="1" fill="none" fill-rule="evenodd">
        <g id="Desktop" transform="translate(-96.000000, -89.000000)">
            <g id="asiete" transform="translate(96.000000, 89.000000)">
                <path d="M6.94855256,24.6165686 L3.55271368e-15,24.6165686 L14.3857672,3.14610819 C15.7257809,1.14593345 18.0919156,-1.0658141e-13 20.8806116,-1.0658141e-13 L28.6829384,-1.0658141e-13 L14.1916174,21.1506574 C12.6802951,23.3558765 10.0462961,24.6165686 6.94855256,24.6165686" id="Fill-1" fill="#251CF5"></path>
                <path d="M19.6338411,49 L12.3170616,49 L26.5962368,27.6886143 C28.0040818,25.587571 30.4896134,24.3834314 33.4191631,24.3834314 L41,24.3834314 L26.3287186,45.7963471 C24.9319481,47.8352157 22.4972899,49 19.6338411,49" id="Fill-4" fill="#F01899"></path>
                <path d="M99.2911499,48.8457536 C96.9917477,48.0767063 94.9602258,46.9974504 93.1977341,45.6085489 L96.3594121,40.8231159 C99.5400601,43.0750844 102.855223,44.2010686 106.304327,44.2010686 C107.721908,44.2010686 108.871609,43.9291434 109.75343,43.38473 C110.634676,42.8408797 111.075586,42.1179978 111.075586,41.2166474 C111.075586,40.2032616 110.605933,39.4437852 109.667202,38.9365293 C108.727896,38.4303994 107.204542,37.8955569 105.09714,37.3325648 C102.682768,36.7324152 100.737474,36.0939822 99.2624073,35.4178286 C97.786766,34.7422381 96.6272924,33.8696003 95.7845615,32.8004783 C94.9412558,31.7307933 94.5198903,30.3706043 94.5198903,28.7187854 C94.5198903,26.9172107 94.9889684,25.322254 95.9282742,23.9333525 C96.8670051,22.5450139 98.1891614,21.465758 99.8947429,20.6961478 C101.59975,19.9271006 103.545044,19.541451 105.729476,19.541451 C107.721908,19.541451 109.695945,19.8516596 111.650437,20.4709509 C113.604928,21.0896793 115.424905,21.9443013 117.111517,23.0320021 L114.179779,28.0431949 C112.800138,27.180128 111.372209,26.5231162 109.897142,26.0727225 C108.421501,25.6223288 107.032087,25.397132 105.729476,25.397132 C104.464805,25.397132 103.420301,25.6318997 102.59654,26.1008721 C101.772205,26.5704075 101.360612,27.1987067 101.360612,27.9863327 C101.360612,28.5876083 101.552037,29.0841673 101.935462,29.4788248 C102.318313,29.8729193 102.912708,30.2202854 103.717499,30.5197972 C104.52229,30.820998 105.767416,31.2150925 107.454028,31.7026437 C109.599945,32.2656358 111.381981,32.8663484 112.800138,33.5042184 C114.217719,34.1426515 115.415708,35.0524467 116.392954,36.2347302 C117.3702,37.4164506 117.858823,38.9466632 117.858823,40.8231159 C117.858823,43.600919 116.785577,45.8247379 114.639659,47.4945725 C112.493168,49.1644071 109.6764,49.9998874 106.189356,49.9998874 C103.889954,49.9998874 101.590552,49.6142378 99.2911499,48.8457536 Z M123.952181,49.3241843 L123.952181,20.2174919 L130.965358,20.2174919 L130.965358,49.3241843 L123.952181,49.3241843 Z M124.670744,14.64387 C123.884923,13.855681 123.4923,12.9363149 123.4923,11.8852086 C123.4923,10.8352283 123.884923,9.92430705 124.670744,9.15469683 C125.45599,8.3856496 126.404493,8 127.516254,8 C128.588925,8 129.518459,8.3856496 130.304279,9.15469683 C131.089525,9.92430705 131.482723,10.8352283 131.482723,11.8852086 C131.482723,12.9363149 131.089525,13.855681 130.304279,14.64387 C129.518459,15.4320589 128.588925,15.8261534 127.516254,15.8261534 C126.404493,15.8261534 125.45599,15.4320589 124.670744,14.64387 Z M147.376766,27.3113051 C145.901124,28.4372894 144.914106,29.9568051 144.416285,31.8715413 L160.05222,31.8715413 C159.629705,29.9568051 158.777777,28.4372894 157.494135,27.3113051 C156.209919,26.1853209 154.552625,25.6223288 152.521678,25.6223288 C150.567186,25.6223288 148.851257,26.1853209 147.376766,27.3113051 Z M156.833057,43.0750844 C158.289154,42.5120923 159.438855,41.817923 160.282161,40.9920136 L164.70851,45.4959505 C163.443839,46.8099741 161.661802,47.888667 159.3624,48.7331551 C157.062997,49.5776433 154.82108,49.9998874 152.636648,49.9998874 C149.800336,49.9998874 147.204311,49.3428756 144.847423,48.029415 C142.490536,46.7159544 140.612499,44.8958009 139.213888,42.5683915 C137.814702,40.2415451 137.115684,37.6140609 137.115684,34.6865019 C137.115684,31.8343838 137.785384,29.253065 139.12766,26.9453603 C140.468787,24.6370926 142.289338,22.82651 144.588741,21.5119234 C146.888143,20.1990258 149.436455,19.541451 152.234253,19.541451 C155.261416,19.541451 157.867788,20.255325 160.05222,21.681384 C162.236652,23.108006 163.903719,25.1432225 165.05342,27.7898484 C166.203121,30.4359114 166.777972,33.5413759 166.777972,37.106805 L144.3588,37.106805 C144.780166,39.1341396 145.728669,40.7763876 147.204311,42.032986 C148.679377,43.2912734 150.471186,43.9195726 152.579163,43.9195726 C153.958805,43.9195726 155.376386,43.6380765 156.833057,43.0750844 Z M189.713876,47.6911693 C188.87057,48.4050433 187.883552,48.9680355 186.753971,49.3801457 C185.622665,49.7928189 184.502281,50 183.39052,50 C180.937633,50 178.925656,49.211248 177.354589,47.6348701 C175.782948,46.0590552 174.997702,44.0514253 174.997702,41.6108545 L174.997702,25.9039375 L170.686323,25.9039375 L170.686323,20.2171541 L174.997702,20.2171541 L174.997702,12.2226661 L181.838999,12.2226661 L181.838999,20.2171541 L188.564175,20.2171541 L188.564175,25.9039375 L181.838999,25.9039375 L181.838999,40.7663663 C181.838999,41.7431576 182.116077,42.5493623 182.671957,43.1872324 C183.227837,43.8262285 183.927431,44.144319 184.770162,44.144319 C185.345012,44.144319 185.891695,44.0514253 186.408486,43.8628229 C186.925851,43.6753466 187.356989,43.4124293 187.701899,43.075197 L189.713876,47.6911693 Z M203.825825,27.3113051 C202.350758,28.4372894 201.36374,29.9568051 200.865919,31.8715413 L216.501854,31.8715413 C216.079339,29.9568051 215.227411,28.4372894 213.943769,27.3113051 C212.658978,26.1853209 211.001684,25.6223288 208.971312,25.6223288 C207.01682,25.6223288 205.300891,26.1853209 203.825825,27.3113051 Z M213.282691,43.0750844 C214.738213,42.5120923 215.887914,41.817923 216.731794,40.9920136 L221.157569,45.4959505 C219.893472,46.8099741 218.111436,47.888667 215.812034,48.7331551 C213.512631,49.5776433 211.270714,49.9998874 209.085707,49.9998874 C206.24997,49.9998874 203.653944,49.3428756 201.297057,48.029415 C198.939595,46.7159544 197.061558,44.8958009 195.663522,42.5683915 C194.263761,40.2415451 193.564743,37.6140609 193.564743,34.6865019 C193.564743,31.8343838 194.235018,29.253065 195.576719,26.9453603 C196.917846,24.6370926 198.738397,22.82651 201.0378,21.5119234 C203.337202,20.1990258 205.886089,19.541451 208.683887,19.541451 C211.71105,19.541451 214.316847,20.255325 216.501854,21.681384 C218.686286,23.108006 220.352778,25.1432225 221.502479,27.7898484 C222.65218,30.4359114 223.227031,33.5413759 223.227031,37.106805 L200.807859,37.106805 C201.229225,39.1341396 202.177728,40.7763876 203.653944,42.032986 C205.128436,43.2912734 206.920245,43.9195726 209.028797,43.9195726 C210.408438,43.9195726 211.825445,43.6380765 213.282691,43.0750844 Z M230.297578,48.6764055 C229.415757,47.7953229 228.975421,46.7346457 228.975421,45.4960631 C228.975421,44.3329214 229.415757,43.3189726 230.297578,42.4553427 C231.178249,41.5928387 232.271039,41.1604608 233.574226,41.1604608 C234.761867,41.1604608 235.796023,41.5928387 236.678993,42.4553427 C237.559664,43.3189726 238,44.3329214 238,45.4960631 C238,46.7346457 237.568862,47.7953229 236.706586,48.6764055 C235.84431,49.5580512 234.800382,50 233.574226,50 C232.271039,50 231.178249,49.5580512 230.297578,48.6764055 Z M77.6191693,32.4343082 C79.1327508,31.5712413 80.0812542,30.4075366 80.4646795,28.9437571 L80.4646795,25.6784028 C78.2417324,24.9279343 75.80839,24.5524186 73.1640775,24.5524186 C71.4010109,24.5524186 69.9063995,24.9938044 68.6802433,25.8754501 C67.4535122,26.7576587 66.8407215,27.8740721 66.8407215,29.2252531 C66.8407215,30.5764342 67.3868295,31.665824 68.4790456,32.4906074 C69.5712616,33.3165168 70.9601005,33.7291901 72.646712,33.7291901 C74.4477188,33.7291901 76.1050129,33.2979381 77.6191693,32.4343082 Z M83.8562977,11.6317495 C86.1556999,13.8657023 87.305401,16.8394266 87.305401,20.5551746 L87.305401,38.0642294 L80.4646795,38.0642294 L80.4646795,34.5736782 C79.3914335,35.8882648 78.0020197,36.9100955 76.297013,37.6419853 C74.5914314,38.373875 72.8571073,38.7398199 71.0946156,38.7398199 C68.9866386,38.7398199 67.0896318,38.3547333 65.4035951,37.5856861 C63.7169836,36.8166388 62.3948274,35.7278121 61.4371264,34.3203318 C60.4788505,32.9128515 60,31.2897452 60,29.45045 C60,27.5739973 60.546108,25.9035997 61.6383241,24.4398202 C62.7305401,22.9760407 64.196409,21.8314777 66.0359307,21.0055683 C67.8754525,20.1802218 69.9063995,19.7669856 72.1293465,19.7669856 C74.8886292,19.7669856 77.6668819,20.2933832 80.4646795,21.3433635 L80.4646795,20.5551746 C80.4646795,18.6787218 79.8800565,17.1029069 78.7113853,15.8260408 C77.5421393,14.5503007 75.6934199,13.9118676 73.1640775,13.9118676 C70.7876454,13.9118676 68.1053927,14.6437574 65.1161699,16.1075369 L62.7017976,11.3221039 C66.9171766,9.29533226 70.8646753,8.28194645 74.5437188,8.28194645 C78.4527026,8.28194645 81.5568955,9.39892281 83.8562977,11.6317495 Z" id="asiete." fill="#FFFFFF"></path>
            </g>
        </g>
    </g>
</svg>