<?xml version="1.0" encoding="UTF-8"?>
<svg width="15px" height="16px" viewBox="0 0 15 16" version="1.1" xmlns="http://www.w3.org/2000/svg" xmlns:xlink="http://www.w3.org/1999/xlink">
    <!-- Generator: Sketch 52.5 (67469) - http://www.bohemiancoding.com/sketch -->
    <title>instagram</title>
    <desc>Created with Sketch.</desc>
    <g id="Page-1" stroke="none" stroke-width="1" fill="none" fill-rule="evenodd">
        <g id="Desktop" transform="translate(-480.000000, -893.000000)" fill="#FFFFFF" fill-rule="nonzero">
            <g id="Group" transform="translate(114.000000, 888.000000)">
                <path d="M370.990809,13.0454545 C371.018382,11.6818182 372.148897,10.5909091 373.527574,10.6181818 C374.90625,10.6454545 376.009191,11.7636364 375.981618,13.1272727 C375.954044,14.4909091 374.851103,15.5545455 373.472426,15.5545455 C372.09375,15.5272727 370.990809,14.4090909 370.990809,13.0454545 C370.990809,13.0454545 370.990809,13.0454545 370.990809,13.0454545 M369.639706,13.0454545 C369.667279,15.1454545 371.404412,16.8363636 373.527574,16.8090909 C375.650735,16.7818182 377.360294,15.0636364 377.332721,12.9636364 C377.305147,10.8909091 375.595588,9.2 373.5,9.2 C371.349265,9.2 369.639706,10.9181818 369.639706,13.0454545 M376.588235,9.03636364 C376.588235,9.52727273 377.001838,9.90909091 377.498162,9.90909091 C377.994485,9.90909091 378.380515,9.5 378.380515,9.00909091 C378.380515,8.51818182 377.966912,8.13636364 377.470588,8.13636364 C376.974265,8.13636364 376.588235,8.54545455 376.588235,9.03636364 M370.466912,19.1545455 C369.998162,19.1545455 369.529412,19.0727273 369.060662,18.9090909 C368.426471,18.6363636 367.902574,18.1181818 367.654412,17.4636364 C367.488971,17.0272727 367.40625,16.5363636 367.40625,16.0727273 C367.378676,15.2818182 367.378676,15.0363636 367.378676,13.0454545 C367.378676,11.0545455 367.378676,10.8090909 367.40625,10.0181818 C367.40625,9.55454545 367.488971,9.06363636 367.654412,8.62727273 C367.764706,8.3 367.957721,8 368.205882,7.75454545 C368.454044,7.50909091 368.729779,7.31818182 369.060662,7.18181818 C369.501838,7.01818182 369.970588,6.93636364 370.466912,6.93636364 C371.266544,6.90909091 371.487132,6.90909091 373.5,6.90909091 C375.512868,6.90909091 375.733456,6.90909091 376.533088,6.96363636 C377.001838,6.96363636 377.470588,7.04545455 377.911765,7.20909091 C378.242647,7.31818182 378.545956,7.50909091 378.766544,7.78181818 C379.014706,8.02727273 379.207721,8.32727273 379.318015,8.65454545 C379.483456,9.09090909 379.566176,9.58181818 379.566176,10.0454545 C379.59375,10.8363636 379.621324,11.0818182 379.621324,13.0727273 C379.621324,15.0636364 379.621324,15.3090909 379.566176,16.1 C379.566176,16.5636364 379.483456,17.0545455 379.318015,17.4909091 C379.207721,17.8181818 379.014706,18.1181818 378.766544,18.3636364 C378.518382,18.6090909 378.242647,18.8 377.911765,18.9363636 C377.470588,19.1 377.001838,19.1818182 376.533088,19.1818182 C375.733456,19.2090909 375.512868,19.2363636 373.5,19.2363636 C371.487132,19.2363636 371.266544,19.1818182 370.466912,19.1545455 M370.411765,5.6 C369.777574,5.6 369.170956,5.73636364 368.591912,5.95454545 C367.571691,6.33636364 366.799632,7.15454545 366.413603,8.13636364 C366.193015,8.70909091 366.082721,9.33636364 366.055147,9.96363636 C366,10.7545455 366,11 366,13.0454545 C366,15.0909091 366,15.3363636 366.055147,16.1272727 C366.055147,16.7545455 366.193015,17.3545455 366.413603,17.9545455 C366.606618,18.4454545 366.882353,18.9090909 367.268382,19.2909091 C367.654412,19.6727273 368.095588,19.9727273 368.591912,20.1636364 C369.170956,20.3818182 369.777574,20.4909091 370.411765,20.5181818 C371.211397,20.5454545 371.459559,20.5454545 373.5,20.5454545 C375.540441,20.5454545 375.788603,20.5454545 376.588235,20.4909091 C377.222426,20.4909091 377.829044,20.3545455 378.408088,20.1363636 C378.904412,19.9454545 379.373162,19.6454545 379.731618,19.2636364 C380.117647,18.8818182 380.420956,18.4454545 380.586397,17.9272727 C380.806985,17.3545455 380.917279,16.7272727 380.944853,16.1 C380.972426,15.3090909 381,15.0363636 381,13.0181818 C381,11 381,10.7272727 380.944853,9.93636364 C380.944853,9.30909091 380.806985,8.70909091 380.586397,8.10909091 C380.393382,7.61818182 380.117647,7.15454545 379.731618,6.77272727 C379.345588,6.39090909 378.904412,6.09090909 378.408088,5.9 C377.829044,5.68181818 377.222426,5.57272727 376.588235,5.54545455 C375.788603,5.54545455 375.512868,5.54545455 373.5,5.54545455 C371.487132,5.54545455 371.211397,5.54545455 370.411765,5.6" id="instagram"></path>
            </g>
        </g>
    </g>
</svg>