<?xml version="1.0" encoding="UTF-8"?>
<svg width="14px" height="14px" viewBox="0 0 14 14" version="1.1" xmlns="http://www.w3.org/2000/svg" xmlns:xlink="http://www.w3.org/1999/xlink">
    <!-- Generator: Sketch 52.5 (67469) - http://www.bohemiancoding.com/sketch -->
    <title>whatsapp</title>
    <desc>Created with Sketch.</desc>
    <g id="Page-1" stroke="none" stroke-width="1" fill="none" fill-rule="evenodd">
        <g id="Desktop" transform="translate(-244.000000, -894.000000)" fill="#FFFFFF">
            <g id="Group" transform="translate(114.000000, 888.000000)">
                <path d="M137.000421,6 L136.996027,6 C134.353828,6.03492295 131.950454,7.51996014 130.760159,9.85312214 C129.569865,12.1862841 129.790137,14.9804667 131.331684,17.1029923 L130.461599,19.7035992 L133.150953,18.8439735 C134.289203,19.5995665 135.629537,20.0020767 137.000421,19.9999919 C140.878734,19.957251 144,16.8357993 144,12.999996 C144,9.16419266 140.878734,6.04274091 137.000421,6 Z M141.074002,15.884827 C140.789025,16.4018807 140.283905,16.7646553 139.698565,16.8726578 C139.333832,16.9508846 138.854846,17.0125969 137.246506,16.3459306 C135.189941,15.4941275 133.867236,13.4032987 133.761771,13.2677055 C133.287082,12.6566436 132.998916,11.9241134 132.931235,11.1564507 C132.911786,10.5132474 133.172664,9.89277464 133.647517,9.4528446 C133.844358,9.2805049 134.10115,9.19044969 134.3638,9.20164961 C134.442898,9.20164961 134.521997,9.20469177 134.596701,9.20990689 C134.815633,9.18713622 135.012818,9.34160107 135.040532,9.55758161 C135.211913,9.96479563 135.620589,10.969141 135.673322,11.071705 C135.741942,11.1868786 135.751711,11.3272872 135.699688,11.4506705 C135.642257,11.5684295 135.566648,11.6766338 135.475575,11.7714004 C135.37011,11.8909136 135.273434,11.9808744 135.167969,12.1090795 C135.034807,12.2136354 135.000931,12.3997574 135.088871,12.5436729 C135.394356,13.0668961 135.776405,13.5425618 136.222618,13.9552323 C136.700281,14.3930434 137.258108,14.736589 137.866112,14.9674003 C138.030458,15.0459276 138.226871,15.0148826 138.358282,14.8896081 C138.512085,14.7205513 138.705437,14.4411077 138.903184,14.1651409 C139.004963,13.9935627 139.222544,13.9274978 139.404142,14.0130332 C139.597494,14.0786568 140.595016,14.5723549 140.801551,14.6753535 C140.948454,14.7246752 141.082161,14.8062441 141.19265,14.9139453 C141.245433,15.2421825 141.204335,15.5784771 141.074002,15.884827 Z" id="whatsapp"></path>
            </g>
        </g>
    </g>
</svg>